# xmcd
#
# Track frame offsets: 
#        150
#        13786
#        28266
#        40677
#        54025
#        67121
#        80560
#        92089
#        105596
#        117654
#        132130
#        143579
#        157294
#        171489
#        185995
#        199101
#        213844
#        225241
#        238908
#        253548
#
# Disc length: 3571 seconds
#
# Revision: 0
# Processed by: cddbd v1.5.2PL0 Copyright (c) Steve Scherf et al.
# Submitted via: ExactAudioCopy v0.95b3
#
DISCID=1e0df114
DTITLE=Nat King Cole  - The World of Nat King Cole [CD2) - flac
DYEAR=1900
DGENRE=
TTITLE0=01 - Somewhere Along The Way
TTITLE1=02 - Because You're Mine
TTITLE2=03 - Pretend
TTITLE3=04 - Tenderly
TTITLE4=05 - Smile
TTITLE5=06 - Make Her Mine
TTITLE6=07 - A Blossom Fell
TTITLE7=08 - My One Sin
TTITLE8=09 - Walking My Baby Back Home
TTITLE9=10 - I'm In The Mood For Love
TTITLE10=11 - Makin' Whoopee
TTITLE11=12 - Route 66 (Troup)
TTITLE12=13 - Portrait Of Jennie
TTITLE13=14 - I'll String Along With You
TTITLE14=15 - (I Love You) For Sentimental Reasons
TTITLE15=16 - For All We Know
TTITLE16=17 - Yes Sir That's My Baby
TTITLE17=18 - Calypse Blues
TTITLE18=19 - The Little Christmas Tree
TTITLE19=20 - The Christmas Song
EXTD=
EXTT0=
EXTT1=
EXTT2=
EXTT3=
EXTT4=
EXTT5=
EXTT6=
EXTT7=
EXTT8=
EXTT9=
EXTT10=
EXTT11=
EXTT12=
EXTT13=
EXTT14=
EXTT15=
EXTT16=
EXTT17=
EXTT18=
EXTT19=
PLAYORDER=
